<svg xmlns="http://www.w3.org/2000/svg" xmlns:xlink="http://www.w3.org/1999/xlink" width="1000" zoomAndPan="magnify" viewBox="0 0 750 749.999995" height="1000" preserveAspectRatio="xMidYMid meet" version="1.0"><path fill="#15dd4d" d="M 196.785156 196.207031 C 196.785156 223.773438 215.976562 246.1875 239.679688 246.1875 C 263.378906 246.1875 282.570312 223.773438 282.570312 196.207031 C 282.570312 168.644531 263.378906 146.230469 239.679688 146.230469 C 215.976562 146.230469 196.785156 168.644531 196.785156 196.207031 Z M 146.808594 146.230469 C 170.507812 146.230469 189.699219 168.644531 189.699219 196.207031 C 189.699219 223.773438 170.507812 246.1875 146.808594 246.1875 C 123.105469 246.1875 103.914062 223.773438 103.914062 196.207031 C 103.914062 168.644531 123.105469 146.230469 146.808594 146.230469 Z M 146.808594 146.230469 " fill-opacity="1" fill-rule="nonzero"/><path fill="#ffffff" d="M 506.824219 521.320312 L 654.3125 521.320312 C 616.570312 362.886719 492.140625 315.613281 492.140625 315.613281 C 458.394531 301.832031 417.304688 294.875 402.492188 294.746094 L 399.65625 302.089844 L 423.746094 432.3125 L 434.179688 453.953125 C 434.308594 453.953125 530.65625 475.722656 506.824219 521.320312 Z M 274.328125 307.113281 L 311.039062 287.40625 L 311.039062 306.46875 C 311.039062 306.46875 311.039062 334.546875 336.929688 334.546875 C 345.300781 334.546875 355.21875 330.8125 364.75 325.917969 L 447.832031 521.320312 L 414.085938 503.671875 L 515.457031 651.800781 L 515.457031 679.238281 L 208.121094 679.238281 L 224.738281 521.320312 L 148.996094 521.320312 L 216.105469 334.417969 C 245.601562 315.871094 271.363281 307.886719 274.328125 307.113281 Z M 239.679688 225.449219 C 220.484375 225.449219 205.027344 198.140625 205.027344 198.140625 C 205.027344 198.140625 220.484375 170.832031 239.679688 170.832031 C 258.871094 170.832031 274.328125 198.140625 274.328125 198.140625 C 274.328125 198.140625 258.871094 225.449219 239.679688 225.449219 Z M 144.617188 170.832031 C 163.808594 170.832031 179.265625 198.140625 179.265625 198.140625 C 179.265625 198.140625 163.808594 225.449219 144.617188 225.449219 C 125.425781 225.449219 109.96875 198.140625 109.96875 198.140625 C 109.96875 198.140625 125.425781 170.832031 144.617188 170.832031 Z M 144.617188 170.832031 " fill-opacity="1" fill-rule="nonzero"/><path fill="#72533c" d="M 277.804688 263.960938 C 276.003906 273.621094 278.0625 288.433594 282.054688 304.921875 C 291.074219 302.605469 300.734375 300.671875 311.167969 298.996094 L 311.167969 279.289062 C 298.671875 273.75 286.5625 263.058594 280.125 246.058594 L 269.691406 246.058594 C 273.425781 257.003906 277.804688 263.960938 277.804688 263.960938 Z M 278.578125 159.371094 L 288.109375 163.363281 Z M 304.082031 156.664062 C 302.019531 153.445312 298.414062 150.480469 292.230469 150.480469 C 281.667969 150.480469 278.578125 159.371094 278.578125 159.371094 L 273.167969 157.050781 C 277.546875 130.257812 291.585938 93.160156 336.027344 97.414062 C 336.027344 97.414062 390.253906 75 422.585938 97.414062 C 454.917969 119.824219 472.046875 170.058594 472.046875 170.058594 C 472.046875 170.058594 513.007812 189.898438 522.28125 219.007812 C 531.558594 248.117188 513.007812 276.070312 531.558594 295.90625 C 546.757812 312.136719 569.039062 335.835938 566.980469 366.234375 C 527.949219 329.265625 492.140625 315.613281 492.140625 315.613281 C 459.8125 302.347656 420.652344 295.519531 404.421875 294.875 L 402.492188 292.558594 L 402.492188 255.71875 C 407.773438 248.375 411.25 243.09375 411.25 243.09375 C 431.085938 249.664062 442.9375 234.980469 441.648438 216.429688 C 440.359375 197.882812 420.394531 194.019531 417.820312 200.585938 C 415.113281 207.15625 404.550781 216.429688 404.550781 216.429688 C 407.257812 204.582031 396.566406 192.601562 396.566406 192.601562 C 341.050781 184.617188 329.199219 141.078125 329.199219 141.078125 C 324.433594 148.164062 319.667969 153.574219 315.289062 157.824219 C 312.453125 156.792969 308.71875 156.148438 304.082031 156.664062 Z M 304.082031 156.664062 " fill-opacity="1" fill-rule="nonzero"/><path fill="#fad2ac" d="M 329.328125 141.207031 Z M 109.96875 446.613281 C 147.453125 354.511719 179.265625 284.957031 179.265625 284.957031 L 175.402344 246.1875 L 260.929688 246.1875 L 238.90625 273.75 C 238.90625 273.75 222.804688 393.800781 218.167969 429.351562 C 214.6875 456.015625 203.097656 521.320312 203.097656 521.320312 L 224.863281 521.320312 L 219.070312 576.320312 C 161.234375 653.089844 104.171875 622.5625 104.171875 622.5625 C 46.59375 593.324219 82.53125 513.976562 109.96875 446.613281 Z M 311.296875 279.546875 C 311.296875 279.546875 311.167969 279.546875 311.167969 279.546875 L 311.167969 306.597656 C 311.167969 306.597656 311.167969 331.328125 332.546875 334.417969 L 421.167969 581.730469 C 492.269531 736.300781 629.710938 651.289062 629.582031 533.941406 C 629.582031 529.691406 629.453125 525.570312 629.195312 521.449219 L 540.058594 521.449219 L 397.984375 299.382812 C 400.945312 296.679688 402.621094 295.003906 402.621094 295.003906 L 402.621094 255.976562 C 407.902344 248.632812 411.378906 241.804688 411.378906 241.804688 C 431.214844 248.375 443.066406 235.238281 441.777344 216.6875 C 440.488281 198.140625 420.523438 194.277344 417.949219 200.84375 C 415.242188 207.414062 404.679688 216.6875 404.679688 216.6875 C 407.386719 204.839844 396.695312 192.859375 396.695312 192.859375 C 341.179688 184.875 329.328125 141.335938 329.328125 141.335938 C 324.5625 148.421875 319.796875 153.832031 315.417969 158.082031 C 312.453125 156.921875 308.847656 156.40625 304.082031 156.792969 C 302.019531 153.574219 298.414062 150.609375 292.230469 150.609375 C 281.667969 150.609375 278.578125 159.5 278.578125 159.5 L 288.109375 163.492188 C 287.851562 164.265625 287.851562 165.035156 287.851562 165.9375 L 287.851562 172.894531 C 286.5625 173.023438 285.792969 173.023438 285.792969 173.023438 C 285.792969 173.023438 283.601562 177.273438 281.28125 184.101562 C 282.183594 187.964844 282.570312 192.085938 282.570312 196.335938 C 282.570312 206.511719 279.996094 216.042969 275.488281 223.902344 C 277.289062 254.300781 293.90625 271.820312 311.296875 279.546875 Z M 381.753906 274.136719 C 386.519531 271.5625 390.253906 268.855469 392.703125 266.667969 C 392.703125 266.667969 392.832031 266.539062 392.832031 266.539062 C 392.832031 266.539062 392.703125 266.667969 392.703125 266.667969 C 390.253906 268.855469 386.519531 271.5625 381.753906 274.136719 Z M 313.097656 280.320312 Z M 313.097656 280.320312 " fill-opacity="1" fill-rule="nonzero"/><path fill="#000000" d="M 255.394531 196.207031 C 255.394531 187.0625 248.050781 179.722656 238.90625 179.722656 C 229.761719 179.722656 222.417969 187.0625 222.417969 196.207031 C 222.417969 205.355469 229.761719 212.695312 238.90625 212.695312 C 247.921875 212.695312 255.394531 205.355469 255.394531 196.207031 Z M 144.617188 212.695312 C 135.472656 212.695312 128.128906 205.355469 128.128906 196.207031 C 128.128906 187.0625 135.472656 179.722656 144.617188 179.722656 C 153.761719 179.722656 161.105469 187.0625 161.105469 196.207031 C 161.105469 205.355469 153.632812 212.695312 144.617188 212.695312 Z M 103.398438 623.722656 C 104.171875 624.238281 105.847656 625.011719 109.453125 626.167969 C 114.863281 627.972656 122.976562 629.90625 132.894531 629.90625 C 154.792969 629.90625 185.707031 620.632812 217.136719 580.699219 L 206.574219 680.398438 L 516.617188 680.398438 L 516.617188 666.617188 C 518.160156 666.746094 519.835938 666.746094 521.382812 666.746094 C 527.304688 666.746094 533.359375 666.101562 539.414062 664.8125 C 563.886719 659.402344 586.6875 643.429688 603.691406 619.472656 C 621.078125 595 630.609375 564.597656 630.609375 533.6875 C 630.609375 529.949219 630.480469 526.214844 630.222656 522.480469 L 655.984375 522.480469 L 655.597656 520.933594 C 637.695312 445.582031 599.695312 395.730469 568.269531 365.71875 C 569.941406 333.902344 545.597656 307.628906 532.457031 293.585938 C 522.410156 282.765625 523.699219 270.144531 525.246094 255.460938 C 526.40625 244.382812 527.691406 231.757812 523.570312 218.75 C 518.675781 203.421875 505.152344 190.667969 494.589844 182.8125 C 484.671875 175.339844 475.398438 170.445312 473.207031 169.417969 C 471.273438 164.007812 454.015625 117.894531 423.359375 96.640625 C 406.355469 84.789062 383.300781 85.433594 367.070312 88.007812 C 350.96875 90.585938 338.085938 95.609375 335.898438 96.382812 C 315.933594 94.578125 299.960938 100.761719 288.625 115.058594 C 280.640625 124.976562 275.230469 138.632812 272.265625 155.503906 L 257.066406 149.195312 C 251.785156 146.617188 245.988281 145.070312 239.808594 145.070312 C 225.25 145.070312 212.371094 153.316406 204.257812 165.9375 L 162.652344 148.292969 C 157.757812 146.101562 152.347656 144.8125 146.808594 144.8125 C 122.460938 144.8125 102.625 167.871094 102.625 196.078125 C 102.625 224.289062 122.460938 247.34375 146.808594 247.34375 C 147.066406 247.34375 147.195312 247.34375 147.453125 247.34375 L 174.242188 247.34375 L 177.980469 284.699219 C 175.660156 289.851562 144.617188 358.121094 108.808594 446.097656 C 107.519531 449.316406 106.105469 452.535156 104.816406 455.886719 C 78.023438 521.320312 47.625 595.382812 103.398438 623.722656 Z M 282.957031 303.375 C 278.835938 285.730469 277.546875 272.460938 279.09375 264.21875 C 279.09375 263.960938 279.09375 263.574219 278.964844 263.316406 C 278.964844 263.1875 275.101562 257.007812 271.492188 247.34375 L 279.222656 247.34375 C 285.148438 262.15625 295.96875 273.75 309.878906 280.191406 L 309.878906 297.96875 C 309.621094 297.96875 309.363281 298.09375 308.976562 298.09375 C 307.042969 298.351562 305.242188 298.738281 303.308594 298.996094 C 302.921875 299.125 302.535156 299.125 302.148438 299.253906 C 300.21875 299.640625 298.15625 300.027344 296.226562 300.414062 C 296.097656 300.414062 295.96875 300.414062 295.839844 300.542969 C 291.460938 301.445312 287.207031 302.347656 282.957031 303.375 Z M 300.089844 247.472656 L 311.039062 278 C 298.027344 271.949219 287.722656 261.257812 282.054688 247.472656 Z M 312.324219 299.125 L 312.324219 281.867188 L 330.488281 332.488281 C 312.582031 328.367188 312.324219 307.242188 312.324219 306.339844 Z M 280.511719 304.148438 C 262.863281 308.785156 247.40625 314.839844 233.496094 322.570312 C 236.84375 297.324219 239.550781 277.230469 239.9375 274.265625 L 261.445312 247.472656 L 268.660156 247.472656 C 271.878906 256.492188 275.488281 262.671875 276.386719 264.347656 C 274.972656 272.976562 276.257812 286.375 280.511719 304.148438 Z M 146.808594 147.519531 C 152.734375 147.519531 158.398438 149.066406 163.550781 151.640625 C 164.195312 152.027344 164.839844 152.285156 165.484375 152.671875 C 165.742188 152.800781 166.128906 153.058594 166.386719 153.1875 C 167.03125 153.574219 167.675781 153.960938 168.320312 154.476562 C 168.703125 154.730469 169.21875 155.117188 169.605469 155.375 C 169.863281 155.632812 170.25 155.761719 170.507812 156.019531 C 172.054688 157.179688 173.472656 158.46875 174.757812 159.882812 C 174.886719 160.011719 174.886719 160.011719 175.015625 160.140625 C 176.433594 161.6875 177.722656 163.234375 178.878906 164.90625 C 179.007812 165.035156 179.007812 165.164062 179.136719 165.164062 C 180.296875 166.839844 181.328125 168.515625 182.230469 170.1875 C 182.359375 170.445312 182.617188 170.832031 182.746094 171.089844 C 183.003906 171.605469 183.261719 171.992188 183.519531 172.507812 C 183.90625 173.28125 184.160156 174.054688 184.546875 174.828125 C 184.675781 175.210938 184.804688 175.597656 184.933594 175.855469 C 185.191406 176.5 185.449219 177.144531 185.578125 177.789062 C 185.707031 178.046875 185.835938 178.433594 185.964844 178.691406 C 186.222656 179.59375 186.609375 180.621094 186.738281 181.523438 C 186.738281 181.652344 186.867188 181.910156 186.867188 182.039062 C 187.125 182.941406 187.253906 183.84375 187.511719 184.746094 C 187.511719 185.003906 187.640625 185.257812 187.640625 185.386719 C 187.898438 186.417969 188.027344 187.449219 188.15625 188.609375 C 188.15625 188.609375 188.15625 188.738281 188.15625 188.738281 C 188.285156 189.769531 188.414062 190.796875 188.414062 191.828125 C 188.414062 192.085938 188.414062 192.34375 188.414062 192.601562 C 188.414062 193.632812 188.542969 194.792969 188.542969 195.820312 C 188.542969 196.335938 188.542969 196.851562 188.542969 197.238281 C 188.542969 197.625 188.542969 197.882812 188.542969 198.269531 C 188.542969 198.65625 188.542969 198.914062 188.414062 199.300781 C 188.414062 199.816406 188.414062 200.203125 188.285156 200.714844 C 188.285156 200.972656 188.285156 201.230469 188.15625 201.488281 C 188.15625 202.003906 188.027344 202.648438 188.027344 203.164062 C 188.027344 203.292969 188.027344 203.550781 187.898438 203.679688 C 187.769531 204.324219 187.769531 204.96875 187.640625 205.613281 C 187.640625 205.738281 187.640625 205.738281 187.640625 205.867188 C 183.648438 227.894531 166.902344 244.511719 146.9375 244.511719 C 124.007812 244.511719 105.332031 222.613281 105.332031 195.820312 C 105.332031 169.03125 123.878906 147.519531 146.808594 147.519531 Z M 239.679688 147.519531 C 245.730469 147.519531 251.398438 149.066406 256.550781 151.769531 C 257.066406 152.027344 257.582031 152.285156 258.097656 152.542969 C 258.484375 152.800781 258.871094 153.058594 259.257812 153.316406 C 259.515625 153.445312 259.902344 153.703125 260.160156 153.960938 C 261.058594 154.472656 261.832031 155.117188 262.734375 155.761719 C 262.863281 155.890625 262.863281 155.890625 262.992188 156.019531 C 267.886719 159.882812 272.136719 165.035156 275.230469 170.960938 C 275.230469 170.960938 275.230469 171.089844 275.230469 171.089844 C 276.132812 172.894531 277.03125 174.699219 277.675781 176.628906 C 277.804688 177.015625 277.933594 177.402344 278.0625 177.789062 C 278.191406 178.304688 278.449219 178.820312 278.578125 179.207031 C 278.835938 179.980469 279.09375 180.878906 279.351562 181.78125 C 279.480469 182.167969 279.480469 182.425781 279.609375 182.8125 C 279.738281 183.457031 279.996094 184.230469 280.125 184.875 C 280.253906 185.257812 280.253906 185.515625 280.382812 185.902344 C 280.511719 186.933594 280.769531 187.835938 280.898438 188.867188 C 280.898438 188.996094 280.898438 189.253906 280.898438 189.382812 C 281.027344 190.285156 281.15625 191.183594 281.15625 192.085938 C 281.15625 192.34375 281.15625 192.730469 281.15625 192.988281 C 281.15625 194.019531 281.285156 195.050781 281.285156 196.078125 C 281.285156 196.078125 281.285156 196.207031 281.285156 196.207031 C 281.285156 219.652344 267.113281 239.230469 248.308594 243.867188 C 248.179688 243.867188 248.179688 243.867188 248.050781 243.996094 C 247.664062 244.125 247.148438 244.253906 246.632812 244.253906 C 246.375 244.253906 246.117188 244.382812 245.859375 244.382812 C 245.601562 244.382812 245.347656 244.511719 244.960938 244.511719 C 244.574219 244.511719 244.1875 244.640625 243.671875 244.640625 C 243.542969 244.640625 243.414062 244.640625 243.285156 244.640625 C 242.769531 244.640625 242.125 244.769531 241.609375 244.769531 C 240.964844 244.769531 240.320312 244.769531 239.679688 244.769531 C 216.75 244.769531 198.074219 222.871094 198.074219 196.078125 C 198.074219 196.078125 198.074219 195.949219 198.074219 195.949219 C 198.074219 194.921875 198.074219 193.761719 198.203125 192.730469 C 198.203125 192.472656 198.203125 192.085938 198.203125 191.828125 C 198.332031 190.796875 198.332031 189.769531 198.460938 188.609375 C 198.460938 188.480469 198.460938 188.222656 198.589844 188.09375 C 198.71875 187.191406 198.847656 186.289062 198.976562 185.386719 C 199.105469 185.003906 199.105469 184.746094 199.234375 184.359375 C 199.488281 183.328125 199.617188 182.425781 199.875 181.523438 C 200.003906 181.265625 200.003906 180.878906 200.132812 180.621094 C 200.390625 179.851562 200.519531 179.207031 200.777344 178.433594 C 200.90625 178.046875 201.035156 177.789062 201.164062 177.402344 C 201.550781 176.5 201.808594 175.597656 202.195312 174.699219 C 202.324219 174.441406 202.453125 174.054688 202.582031 173.796875 C 202.96875 173.023438 203.226562 172.25 203.613281 171.605469 C 203.742188 171.347656 203.871094 171.089844 204 170.960938 C 204.511719 170.058594 204.898438 169.160156 205.414062 168.386719 C 213.015625 155.761719 225.507812 147.519531 239.679688 147.519531 Z M 565.820312 363.273438 C 563.886719 361.46875 561.957031 359.664062 560.023438 357.992188 C 524.472656 326.5625 493.042969 314.453125 492.65625 314.324219 C 461.097656 301.445312 420.910156 293.972656 403.78125 293.457031 L 403.78125 256.105469 C 403.78125 255.976562 403.910156 255.976562 403.910156 255.847656 C 404.292969 255.332031 404.679688 254.6875 405.066406 254.171875 C 405.195312 254.042969 405.195312 253.914062 405.324219 253.785156 C 405.710938 253.269531 406.097656 252.753906 406.355469 252.109375 C 406.484375 251.980469 406.484375 251.855469 406.613281 251.726562 C 407 251.210938 407.257812 250.695312 407.515625 250.179688 C 407.644531 250.050781 407.644531 249.921875 407.773438 249.792969 C 408.03125 249.277344 408.289062 248.890625 408.546875 248.503906 C 408.675781 248.375 408.675781 248.246094 408.804688 247.988281 C 409.0625 247.601562 409.191406 247.214844 409.445312 246.957031 C 409.574219 246.703125 409.703125 246.574219 409.832031 246.316406 C 409.960938 246.058594 410.089844 245.800781 410.21875 245.542969 C 410.347656 245.285156 410.476562 245.15625 410.605469 244.898438 C 410.734375 244.769531 410.863281 244.511719 410.863281 244.382812 C 410.992188 244.125 411.121094 243.867188 411.25 243.609375 C 411.25 243.480469 411.378906 243.480469 411.378906 243.351562 C 411.378906 243.222656 411.507812 243.09375 411.507812 242.964844 C 422.457031 246.316406 429.671875 243.351562 433.664062 240.261719 C 439.589844 235.625 442.808594 227.636719 442.679688 218.234375 C 442.679688 217.589844 442.679688 216.945312 442.550781 216.300781 C 441.777344 204.324219 433.277344 197.625 425.675781 196.464844 C 421.039062 195.691406 417.433594 197.109375 416.273438 200.074219 C 414.597656 204.324219 409.191406 209.992188 405.96875 213.082031 C 406.355469 202.003906 397.726562 192.214844 397.339844 191.828125 L 397.082031 191.441406 L 396.566406 191.3125 C 394.761719 191.054688 393.089844 190.796875 391.414062 190.410156 C 391.15625 190.410156 391.027344 190.285156 390.769531 190.285156 C 389.351562 190.027344 387.9375 189.769531 386.648438 189.382812 C 386.261719 189.253906 385.875 189.125 385.488281 189.125 C 384.328125 188.867188 383.171875 188.480469 382.140625 188.222656 C 381.625 188.09375 381.109375 187.964844 380.59375 187.707031 C 379.691406 187.449219 378.660156 187.0625 377.761719 186.804688 C 377.117188 186.546875 376.601562 186.289062 375.957031 186.160156 C 375.183594 185.902344 374.539062 185.644531 373.765625 185.386719 C 372.996094 185.132812 372.222656 184.746094 371.449219 184.359375 C 370.933594 184.101562 370.417969 183.972656 370.03125 183.714844 C 369 183.328125 368.101562 182.8125 367.199219 182.296875 C 366.941406 182.167969 366.8125 182.039062 366.554688 182.039062 C 339.117188 167.742188 331.003906 143.65625 330.230469 141.078125 C 330.230469 140.949219 330.101562 140.820312 330.101562 140.820312 L 329.328125 138.117188 L 327.78125 140.433594 C 327.269531 141.207031 326.625 142.109375 326.109375 142.882812 C 325.980469 143.011719 325.980469 143.140625 325.851562 143.140625 C 325.335938 143.785156 324.949219 144.425781 324.433594 145.070312 C 324.175781 145.328125 324.046875 145.585938 323.789062 145.84375 C 323.402344 146.359375 323.015625 146.746094 322.757812 147.261719 C 322.5 147.648438 322.246094 147.90625 321.988281 148.292969 C 321.730469 148.679688 321.472656 149.066406 321.085938 149.324219 C 320.828125 149.707031 320.441406 150.09375 320.183594 150.480469 C 319.925781 150.738281 319.667969 150.996094 319.410156 151.253906 C 319.023438 151.640625 318.636719 152.027344 318.378906 152.414062 C 318.121094 152.671875 317.992188 152.800781 317.734375 153.058594 C 317.347656 153.445312 316.964844 153.960938 316.578125 154.347656 C 316.449219 154.476562 316.191406 154.730469 316.0625 154.859375 C 315.675781 155.246094 315.160156 155.761719 314.773438 156.148438 C 314.773438 156.148438 314.644531 156.277344 314.644531 156.277344 C 313.226562 155.761719 311.554688 155.503906 309.878906 155.246094 C 309.878906 155.246094 309.75 155.246094 309.75 155.246094 C 308.976562 155.117188 308.203125 155.117188 307.300781 155.117188 C 307.171875 155.117188 307.171875 155.117188 307.042969 155.117188 C 306.144531 155.117188 305.242188 155.117188 304.210938 155.246094 C 301.378906 151.253906 297.125 149.195312 291.714844 149.195312 C 291.714844 149.195312 291.585938 149.195312 291.585938 149.195312 C 290.945312 149.195312 290.429688 149.195312 289.914062 149.324219 C 289.65625 149.324219 289.527344 149.324219 289.269531 149.449219 C 288.882812 149.449219 288.496094 149.578125 288.109375 149.578125 C 287.980469 149.578125 287.722656 149.707031 287.59375 149.707031 C 287.207031 149.835938 286.820312 149.964844 286.433594 149.964844 C 286.308594 149.964844 286.179688 150.09375 286.050781 150.09375 C 285.535156 150.222656 285.148438 150.480469 284.632812 150.609375 C 284.503906 150.609375 284.375 150.738281 284.246094 150.738281 C 283.988281 150.867188 283.601562 150.996094 283.34375 151.253906 C 283.214844 151.382812 283.085938 151.382812 282.957031 151.511719 C 282.699219 151.640625 282.441406 151.898438 282.183594 152.027344 C 282.054688 152.15625 281.925781 152.15625 281.796875 152.285156 C 281.539062 152.542969 281.15625 152.800781 280.898438 153.058594 C 280.898438 153.058594 280.898438 153.058594 280.769531 153.1875 C 280.511719 153.445312 280.253906 153.703125 279.996094 153.960938 C 279.867188 154.089844 279.867188 154.089844 279.738281 154.21875 C 279.609375 154.347656 279.351562 154.601562 279.222656 154.730469 C 279.09375 154.859375 279.09375 154.859375 278.964844 154.988281 C 278.835938 155.246094 278.707031 155.375 278.578125 155.632812 C 278.578125 155.761719 278.449219 155.761719 278.449219 155.890625 C 278.320312 156.148438 278.0625 156.40625 277.933594 156.664062 C 277.933594 156.664062 277.804688 156.792969 277.804688 156.792969 C 277.675781 156.921875 277.546875 157.179688 277.546875 157.308594 C 277.546875 157.4375 277.417969 157.4375 277.417969 157.566406 C 277.417969 157.566406 277.289062 157.695312 277.289062 157.695312 L 273.941406 156.277344 C 282.699219 104.753906 312.066406 96.511719 335.253906 98.699219 C 335.511719 98.699219 335.640625 98.699219 335.898438 98.570312 C 336.414062 98.3125 389.867188 76.675781 421.296875 98.441406 C 452.855469 120.339844 470.117188 169.929688 470.375 170.445312 C 470.503906 170.832031 470.761719 171.089844 471.015625 171.21875 C 471.402344 171.476562 511.59375 191.183594 520.609375 219.394531 C 524.601562 231.757812 523.3125 243.609375 522.152344 255.074219 C 520.609375 269.757812 519.320312 283.667969 530.140625 295.261719 C 543.148438 308.785156 566.207031 333.519531 565.820312 363.273438 Z M 317.605469 157.566406 C 317.734375 157.4375 317.734375 157.4375 317.863281 157.308594 C 317.863281 157.308594 317.992188 157.179688 317.992188 157.179688 C 318.507812 156.664062 319.023438 156.148438 319.539062 155.632812 C 319.539062 155.632812 319.667969 155.503906 319.667969 155.503906 C 320.183594 154.988281 320.570312 154.476562 321.085938 153.960938 C 321.214844 153.832031 321.34375 153.703125 321.34375 153.574219 C 321.730469 153.058594 322.246094 152.671875 322.628906 152.15625 C 322.757812 151.898438 323.015625 151.769531 323.144531 151.511719 C 323.53125 151.125 323.789062 150.738281 324.175781 150.222656 C 324.433594 149.835938 324.820312 149.449219 325.078125 149.066406 C 325.335938 148.808594 325.464844 148.550781 325.722656 148.292969 C 326.753906 146.875 327.78125 145.585938 328.8125 144.042969 C 332.421875 153.445312 348.261719 186.933594 395.921875 193.890625 C 397.339844 195.691406 403.652344 203.679688 403.652344 212.4375 C 403.652344 213.726562 403.523438 214.886719 403.265625 216.171875 L 402.363281 220.039062 L 405.324219 217.460938 C 405.710938 217.074219 416.144531 207.929688 418.851562 201.101562 C 419.496094 199.429688 422.199219 198.527344 425.546875 199.042969 C 432.117188 200.074219 439.460938 205.996094 440.230469 216.558594 C 440.230469 217.203125 440.359375 217.71875 440.359375 218.363281 C 440.617188 226.992188 437.65625 234.207031 432.375 238.328125 C 427.09375 242.449219 419.878906 243.09375 411.507812 240.390625 L 410.476562 240.003906 L 409.960938 241.035156 C 409.960938 241.164062 406.484375 247.859375 401.332031 254.945312 C 393.089844 265.765625 384.84375 270.917969 382.140625 272.460938 L 361.144531 239.746094 C 363.71875 234.722656 365.136719 229.054688 365.136719 223.386719 L 365.136719 191.3125 C 365.136719 191.183594 365.394531 186.804688 361.660156 183.070312 C 358.308594 179.722656 352.902344 178.175781 345.558594 178.5625 C 344.785156 174.183594 342.597656 168.902344 337.316406 166.710938 C 332.035156 164.523438 327.652344 165.808594 325.59375 166.839844 C 324.5625 163.75 322.117188 159.882812 317.605469 157.566406 Z M 383.6875 274.652344 C 386.519531 273.105469 393.734375 268.46875 401.203125 259.453125 L 401.203125 294.359375 C 400.6875 294.875 399.65625 295.90625 398.113281 297.453125 Z M 652.765625 520.03125 L 540.832031 520.03125 L 399.65625 299.511719 C 401.332031 297.839844 402.492188 296.679688 403.136719 296.035156 C 416.917969 296.292969 457.363281 302.734375 491.753906 316.773438 C 492.140625 316.902344 523.183594 328.878906 558.347656 360.050781 C 590.679688 388.648438 633.1875 439.398438 652.765625 520.03125 Z M 422.328125 581.085938 L 302.792969 247.472656 L 299.316406 237.941406 L 299.445312 237.941406 L 298.671875 236.140625 C 298.542969 236.011719 298.542969 235.753906 298.542969 235.625 C 298.285156 235.109375 298.15625 234.59375 297.898438 234.078125 C 297.640625 233.433594 297.382812 232.660156 297.253906 232.015625 L 291.457031 210.765625 C 291.074219 209.21875 290.6875 207.671875 290.429688 206.253906 C 290.171875 205.226562 290.042969 204.195312 289.914062 203.164062 C 289.914062 202.90625 289.785156 202.648438 289.785156 202.390625 C 289.527344 200.332031 289.269531 198.269531 289.140625 196.207031 C 289.140625 195.949219 289.140625 195.691406 289.140625 195.4375 C 289.140625 194.40625 289.011719 193.375 289.011719 192.34375 L 289.011719 165.9375 C 289.011719 165.808594 289.011719 165.679688 289.011719 165.550781 L 289.011719 165.421875 C 289.011719 165.164062 289.011719 164.90625 289.140625 164.652344 C 289.140625 164.394531 289.269531 164.136719 289.269531 163.878906 L 289.527344 162.847656 L 288.496094 162.460938 L 286.308594 161.558594 L 280.253906 158.984375 C 280.511719 158.46875 281.027344 157.695312 281.539062 156.921875 C 281.667969 156.792969 281.796875 156.664062 281.796875 156.535156 C 281.796875 156.535156 281.925781 156.40625 281.925781 156.40625 C 282.054688 156.277344 282.3125 156.019531 282.441406 155.890625 C 284.375 153.960938 287.335938 152.15625 292.101562 152.15625 C 296.867188 152.15625 300.476562 153.960938 302.792969 157.695312 C 302.792969 157.824219 302.921875 157.824219 303.050781 157.953125 C 303.566406 158.597656 306.53125 163.492188 305.886719 178.304688 L 308.460938 178.433594 C 308.976562 166.710938 307.429688 160.785156 306.144531 158.082031 C 306.402344 158.082031 306.53125 158.082031 306.789062 158.082031 C 307.171875 158.082031 307.558594 158.082031 308.074219 158.082031 C 308.589844 158.082031 309.234375 158.082031 309.75 158.210938 C 309.878906 158.210938 310.007812 158.210938 310.007812 158.210938 C 311.8125 158.46875 313.355469 158.855469 314.902344 159.371094 C 314.902344 159.371094 315.03125 159.371094 315.03125 159.371094 C 319.796875 161.300781 322.246094 164.90625 323.53125 168.386719 C 323.789062 169.03125 325.722656 176.242188 324.304688 186.417969 L 326.882812 186.804688 C 328.039062 178.820312 327.140625 172.636719 326.496094 169.675781 C 327.910156 168.902344 331.777344 167.226562 336.542969 169.289062 C 341.179688 171.347656 342.851562 176.371094 343.496094 180.363281 C 343.496094 180.363281 344.398438 186.804688 343.496094 195.691406 L 346.074219 195.949219 C 346.71875 189.253906 346.460938 183.84375 346.203125 181.523438 C 352.644531 181.265625 357.28125 182.554688 360.113281 185.257812 C 362.949219 188.09375 362.820312 191.441406 362.820312 191.570312 L 362.820312 223.515625 C 362.820312 229.054688 361.402344 234.59375 358.824219 239.359375 C 358.566406 239.746094 358.566406 240.261719 358.824219 240.648438 L 538.898438 521.964844 C 539.285156 522.609375 558.605469 556.871094 556.417969 580.183594 L 558.992188 580.441406 C 561.054688 559.191406 546.371094 530.335938 542.25 522.609375 L 627.648438 522.609375 C 627.90625 526.34375 628.035156 530.078125 628.035156 533.816406 C 628.035156 564.214844 618.632812 594.097656 601.628906 618.054688 C 585.011719 641.371094 562.730469 657.082031 538.898438 662.363281 C 493.171875 672.28125 450.664062 642.65625 422.328125 581.085938 Z M 240.964844 379.246094 L 238.390625 378.988281 L 223.578125 520.03125 L 204.511719 520.03125 C 206.316406 510.113281 216.105469 453.695312 219.328125 429.480469 C 221.902344 409.644531 228.214844 362.757812 233.109375 325.660156 C 247.40625 317.417969 263.636719 311.105469 282.3125 306.339844 C 282.3125 306.339844 282.441406 306.339844 282.441406 306.339844 C 286.949219 305.179688 291.585938 304.148438 296.355469 303.121094 C 296.484375 303.121094 296.613281 303.121094 296.613281 302.992188 C 300.863281 302.089844 305.371094 301.316406 309.878906 300.671875 L 309.878906 306.46875 C 309.878906 306.726562 310.136719 331.714844 331.648438 335.449219 L 420.007812 582.117188 C 443.582031 633.511719 477.070312 663.136719 514.167969 666.488281 L 514.167969 677.820312 L 209.535156 677.820312 L 225.378906 528.019531 L 226.28125 519.902344 Z M 107.132812 456.914062 C 108.421875 453.695312 109.839844 450.347656 111.128906 447.125 C 148.09375 356.1875 180.039062 286.246094 180.425781 285.601562 L 180.554688 285.085938 L 180.554688 284.828125 L 176.820312 247.472656 L 258.226562 247.472656 L 237.617188 273.234375 L 237.617188 273.621094 C 237.488281 274.78125 221.386719 394.058594 216.878906 429.222656 C 213.402344 455.242188 202.195312 518.871094 201.808594 521.0625 C 201.550781 522.222656 193.050781 552.621094 178.625 562.539062 L 180.039062 564.597656 C 194.082031 554.9375 202.453125 528.019531 204 522.609375 L 223.320312 522.609375 L 217.652344 575.804688 C 201.421875 597.316406 174.757812 623.59375 139.851562 626.941406 C 120.015625 628.875 106.363281 622.433594 104.6875 621.53125 L 104.558594 621.402344 C 50.972656 594.097656 80.859375 521.191406 107.132812 456.914062 Z M 524.730469 436.179688 L 527.304688 435.921875 Z M 524.730469 436.179688 " fill-opacity="1" fill-rule="nonzero"/></svg>